Coordinates
version=1
nRows=13
nColumns=40
inDegrees=yes

Units are S.I. units (second, meters, Newtons, ...)
Angles are in degrees.

endheader
time	pelvis_tilt	pelvis_list	pelvis_rotation	pelvis_tx	pelvis_ty	pelvis_tz	hip_flexion_r	hip_adduction_r	hip_rotation_r	knee_angle_r	knee_angle_r_beta	ankle_angle_r	subtalar_angle_r	mtp_angle_r	hip_flexion_l	hip_adduction_l	hip_rotation_l	knee_angle_l	knee_angle_l_beta	ankle_angle_l	subtalar_angle_l	mtp_angle_l	lumbar_extension	lumbar_bending	lumbar_rotation	arm_flex_r	arm_add_r	arm_rot_r	elbow_flex_r	pro_sup_r	wrist_flex_r	wrist_dev_r	arm_flex_l	arm_add_l	arm_rot_l	elbow_flex_l	pro_sup_l	wrist_flex_l	wrist_dev_l
     51.77750000	     -2.04238235	     -4.58468003	     -1.19692430	      0.97615836	      0.93593019	      0.40153607	     38.64700828	     -3.65545637	     -3.17546402	     68.18962101	     68.18962101	      6.83198160	    -18.99884345	     12.11456123	      9.80398683	     -4.02073729	     -8.56947606	     19.53178564	     19.53178564	     13.40493185	    -14.56704998	     -2.04601844	    -11.28673368	      6.29769057	      1.53070308	      3.41543671	    -12.52930150	    -11.99873329	     23.45534640	     47.56946720	      0.00000000	      0.00000000	     22.16937274	    -13.98831560	     -0.09509588	     49.94118207	     46.29750140	      0.00000000	      0.00000000
     51.78957143	     -2.20330153	     -4.60784864	     -1.31675859	      0.97598872	      0.93582094	      0.40165589	     39.03637052	     -3.58894919	     -3.42098336	     65.57320464	     65.57320464	      6.47512720	    -18.80368990	     12.37473523	      9.28279821	     -4.01383728	     -8.64512269	     19.20955039	     19.20955039	     13.70392255	    -14.49321265	     -2.11104171	    -11.13016425	      6.49452405	      1.29375427	      1.56876089	    -12.85925131	    -12.08684945	     22.55894329	     47.59821641	      0.00000000	      0.00000000	     23.00286625	    -14.47959007	     -0.30482904	     50.74299972	     46.33487482	      0.00000000	      0.00000000
     51.80164286	     -2.14426717	     -4.64088840	     -1.55464562	      0.97606229	      0.93611238	      0.40191701	     38.92520745	     -3.42503868	     -3.63544406	     62.50358815	     62.50358815	      5.88722345	    -18.64143729	     11.58771685	      8.30197685	     -4.01809034	     -8.94446177	     18.53819049	     18.53819049	     13.92829371	    -14.14936871	     -2.24073753	    -11.40664256	      6.62211982	      2.36618044	     -0.59922880	    -13.34759809	    -12.34242486	     20.78718806	     47.67940131	      0.00000000	      0.00000000	     23.61602591	    -13.99972950	     -0.50093587	     53.99416491	     46.40463510	      0.00000000	      0.00000000
     51.81371429	     -2.23527866	     -4.68163449	     -1.71409292	      0.97618476	      0.93604772	      0.40218975	     38.72089065	     -3.36779229	     -4.13303018	     59.01212716	     59.01212716	      4.62542997	    -18.48848351	      8.47981671	      7.56858361	     -4.03224417	     -9.15347074	     17.99065641	     17.99065641	     14.03878549	    -13.99629512	     -2.63268349	    -11.43304836	      6.79836804	      1.75027848	     -1.63367594	    -13.55615000	    -13.29337891	     19.16694927	     47.84389431	      0.00000000	      0.00000000	     22.78362479	    -14.78378950	     -1.33732511	     58.37747120	     46.55872319	      0.00000000	      0.00000000
     51.82578571	     -2.37432562	     -4.77264747	     -1.85382576	      0.97630235	      0.93588263	      0.40267148	     38.48423585	     -3.15736484	     -4.63090229	     55.43403684	     55.43403684	      4.41968864	    -18.01262677	      8.56113101	      6.92357697	     -4.10946669	     -9.27305636	     17.51579166	     17.51579166	     14.24820904	    -13.87255269	     -2.65484624	    -11.36315603	      7.00517596	      1.96429535	     -3.45510593	    -13.85924950	    -13.42777144	     18.30225833	     47.88092240	      0.00000000	      0.00000000	     23.44938127	    -14.74138154	     -1.65939178	     59.69303257	     46.61298090	      0.00000000	      0.00000000
     51.83785714	     -2.42617659	     -4.76678473	     -2.05497140	      0.97657648	      0.93566601	      0.40333191	     37.98446181	     -2.96522007	     -5.04907056	     51.62787689	     51.62787689	      4.15121817	    -17.36804081	      7.94519299	      6.14015891	     -4.09173969	     -9.50195075	     17.00242763	     17.00242763	     14.47532973	    -13.61001969	     -2.80136563	    -11.48610615	      7.03797169	      2.49413494	     -5.41745811	    -14.07542891	    -13.66778130	     17.62393571	     47.92099721	      0.00000000	      0.00000000	     23.89042651	    -14.55083159	     -2.15264824	     62.17019782	     46.69853403	      0.00000000	      0.00000000
     51.84992857	     -2.60501033	     -4.75811442	     -2.18387638	      0.97697464	      0.93508341	      0.40407064	     37.33046887	     -2.84141719	     -5.71701403	     47.39756066	     47.39756066	      2.88412249	    -16.81999200	      4.25638833	      5.54089763	     -4.10342590	     -9.78492648	     16.55361200	     16.55361200	     14.56583064	    -13.35540313	     -3.34772960	    -11.43260606	      7.09664652	      1.85331154	     -6.95915716	    -14.17330478	    -14.55648342	     18.18913460	     47.98297391	      0.00000000	      0.00000000	     22.83424214	    -15.16652965	     -3.49319231	     66.74516204	     46.89729340	      0.00000000	      0.00000000
     51.86200000	     -2.68850647	     -4.76539637	     -2.33551506	      0.97762766	      0.93455426	      0.40505037	     36.49047254	     -2.60107346	     -6.35769934	     43.25290262	     43.25290262	      2.90439891	    -15.57685802	      4.05457533	      4.79160216	     -4.11980809	    -10.01751109	     16.06854669	     16.06854669	     14.78356673	    -13.14635583	     -3.45037238	    -11.36158880	      7.09459766	      2.19820968	     -8.67177828	    -14.28275099	    -14.71615343	     17.61632226	     48.00870146	      0.00000000	      0.00000000	     23.31315086	    -14.98385788	     -3.84285207	     68.31452737	     46.96077978	      0.00000000	      0.00000000
     51.87407143	     -2.87487866	     -4.78454340	     -2.43940363	      0.97831780	      0.93375457	      0.40610310	     35.62326730	     -2.30664074	     -6.98464364	     39.05074607	     39.05074607	      2.88087617	    -14.05891641	      4.14988242	      4.20245240	     -4.16363915	    -10.16316943	     15.66695329	     15.66695329	     15.02285031	    -12.92089425	     -3.60240589	    -11.21196271	      7.18768916	      2.24132994	    -10.23218455	    -14.34006005	    -14.88553534	     17.34284541	     48.02148921	      0.00000000	      0.00000000	     23.50262154	    -14.99828873	     -4.11714913	     69.75680594	     47.01106291	      0.00000000	      0.00000000
     51.88614286	     -2.90698363	     -4.69205293	     -2.58836286	      0.97943324	      0.93282440	      0.40741867	     34.44128569	     -2.08309045	     -7.65533221	     34.85640917	     34.85640917	      2.48703599	    -12.36566908	      2.75388239	      3.38830137	     -4.12823024	    -10.61462161	     15.23033906	     15.23033906	     15.24697402	    -12.34338099	     -4.12849952	    -11.29069747	      7.03624992	      1.94532555	    -11.95468181	    -14.29444499	    -15.70837837	     18.77440758	     48.00899627	      0.00000000	      0.00000000	     22.59318443	    -15.32427186	     -5.16474781	     73.87474814	     47.18439615	      0.00000000	      0.00000000
     51.89821429	     -2.94487315	     -4.63965947	     -2.69451322	      0.98075954	      0.93177939	      0.40888030	     33.21062986	     -1.76605372	     -8.30774268	     30.91977885	     30.91977885	      2.53825323	    -10.46345884	      3.19353837	      2.58117506	     -4.10989045	    -10.83501182	     14.81106292	     14.81106292	     15.53662127	    -12.05747783	     -4.26276990	    -11.19008213	      6.95232872	      2.09726226	    -13.34584225	    -14.24131591	    -15.87321809	     18.53543476	     48.01650469	      0.00000000	      0.00000000	     22.74939449	    -15.22012296	     -5.39470251	     75.18479374	     47.23277337	      0.00000000	      0.00000000
     51.91028571	     -2.97118779	     -4.55847508	     -2.78581396	      0.98235442	      0.93051500	      0.41050416	     31.95171715	     -1.45845098	     -8.97565724	     27.33226791	     27.33226791	      2.56455604	     -8.50362590	      3.81359152	      1.75897093	     -4.07921739	    -11.08919609	     14.42199414	     14.42199414	     15.88622417	    -11.67280032	     -4.41572862	    -11.04485850	      6.82883618	      2.15405029	    -14.63294990	    -14.14181286	    -16.09287815	     18.55796455	     48.01794583	      0.00000000	      0.00000000	     22.67082513	    -15.18406480	     -5.60878191	     76.68278080	     47.28107012	      0.00000000	      0.00000000
     51.92235714	     -3.07820542	     -4.42584258	     -2.90161567	      0.98412128	      0.92893117	      0.41237433	     30.82557356	     -1.14323449	     -9.51840652	     24.20891834	     24.20891834	      2.54746198	     -6.75120843	      4.51725586	      1.04423281	     -4.01641367	    -11.37117493	     14.09426763	     14.09426763	     16.25500428	    -11.30744597	     -4.52124396	    -10.76788498	      6.60750726	      2.17544825	    -15.68707813	    -13.93438131	    -16.28968120	     18.67190814	     48.01510739	      0.00000000	      0.00000000	     22.52493950	    -15.20114872	     -5.79146127	     78.00774954	     47.32095835	      0.00000000	      0.00000000
